<svg id="Capa_1" enable-background="new 0 0 511.997 511.997" height="512" viewBox="0 0 511.997 511.997" width="512" xmlns="http://www.w3.org/2000/svg"><g><path d="m450.998 62.106h-15c-107.249 0-166.942-55.522-180-62.106-13.61 6.861-72.867 62.106-180 62.106h-15v185.264c0 28.951 4.434 57.323 13.172 84.628h-13.172v120h89.722c48.524 44.607 101.146 58.172 105.278 60 4.065-1.797 56.695-15.339 105.278-60h89.722v-120h-13.172c8.738-27.305 13.172-55.677 13.172-84.628zm-195 418.221c-20.622-7.288-39.628-16.775-56.88-28.33h113.76c-17.251 11.555-36.258 21.041-56.88 28.33zm165-58.33h-330v-60h330zm-240-164.891c0-27.364 11.31-53.222 25.627-75.108h98.823c14.28 21.855 25.55 47.696 25.55 75.108 0 23.896-8.585 49.061-25.527 74.892h-98.947c-16.941-25.831-25.526-50.996-25.526-74.892zm48.965-105c10.017-11.122 19.49-19.902 26.05-25.596 6.576 5.691 16.068 14.469 26.098 25.596zm110.438 179.891c13.678-25.265 20.597-50.365 20.597-74.892 0-67.016-51.095-127.965-105-168.716-53.834 40.697-105 101.667-105 168.716 0 24.527 6.92 49.627 20.597 74.892h-65.728c-9.86-27.136-14.869-55.554-14.869-84.628v-155.604c100.039-4.558 160.11-53.299 165-55.709 4.917 2.424 65.063 51.156 165 55.709v155.605c0 29.074-5.008 57.492-14.869 84.628h-65.728z"/><path d="m240.998 211.997h30v90h-30z"/></g></svg>